<?xml version="1.0" ?><svg height="100pt" style="isolation:isolate" viewBox="0 0 100 100" width="100pt" xmlns="http://www.w3.org/2000/svg" xmlns:xlink="http://www.w3.org/1999/xlink"><defs><clipPath id="_clipPath_BMSDFwljmEpGjh6vs8MtLEkrz7QDZ3Mq"><rect height="100" width="100"/></clipPath></defs><g clip-path="url(#_clipPath_BMSDFwljmEpGjh6vs8MtLEkrz7QDZ3Mq)"><path d=" M 33.725 43.825 C 34.621 33.687 39.576 22.62 48.669 10.656 C 49.118 10.065 49.964 9.95 50.556 10.4 C 51.147 10.849 51.262 11.695 50.812 12.286 C 41.253 24.864 36.371 36.362 36.27 46.827 C 36.265 47.369 35.935 47.856 35.433 48.061 C 34.931 48.266 34.355 48.15 33.971 47.767 C 30.375 44.17 26.746 41.534 23.073 39.875 C 22.187 44.868 23.825 49.654 27.905 54.256 C 28.21 54.599 28.318 55.073 28.194 55.514 C 28.07 55.956 27.729 56.303 27.29 56.437 C 23.113 57.708 19.104 59.727 15.257 62.488 C 15.747 62.812 16.401 63.086 17.212 63.33 C 20.082 64.194 24.701 64.606 31.065 64.606 C 31.503 64.606 31.914 64.819 32.166 65.177 C 32.418 65.535 32.481 65.993 32.334 66.405 L 31.385 69.063 C 38.797 69.527 44.862 68.723 49.573 66.599 C 50.25 66.293 51.048 66.596 51.354 67.273 C 51.66 67.95 51.357 68.748 50.68 69.054 C 45.261 71.498 38.173 72.374 29.406 71.616 C 28.99 71.58 28.615 71.354 28.389 71.002 C 28.164 70.651 28.114 70.214 28.254 69.822 L 29.159 67.286 C 23.413 67.203 19.172 66.733 16.435 65.909 C 13.918 65.15 12.53 63.986 12.056 62.722 C 11.847 62.165 12.027 61.538 12.501 61.178 C 16.374 58.226 20.41 55.999 24.604 54.492 C 20.441 49.114 19.206 43.495 20.816 37.66 C 20.917 37.294 21.167 36.988 21.506 36.817 C 21.844 36.645 22.239 36.625 22.594 36.759 C 26.339 38.187 30.054 40.537 33.725 43.825 Z " fill="white" fill-rule="evenodd"/><path d=" M 77.18 40.03 C 73.507 41.688 69.877 44.324 66.281 47.921 C 65.898 48.305 65.321 48.421 64.819 48.216 C 64.317 48.01 63.987 47.524 63.982 46.981 C 63.881 36.524 58.848 25.084 48.993 12.615 C 48.532 12.032 48.631 11.184 49.214 10.724 C 49.797 10.263 50.645 10.362 51.106 10.945 C 60.492 22.821 65.603 33.845 66.524 43.982 C 70.197 40.692 73.912 38.341 77.66 36.914 C 78.014 36.779 78.409 36.8 78.748 36.971 C 79.086 37.142 79.336 37.449 79.437 37.814 C 81.047 43.649 79.811 49.268 75.648 54.646 C 79.843 56.153 83.879 58.381 87.753 61.332 C 88.226 61.692 88.406 62.32 88.197 62.876 C 87.723 64.14 86.335 65.305 83.818 66.063 C 81.081 66.887 76.84 67.357 71.093 67.44 L 71.999 69.976 C 72.14 70.371 72.089 70.81 71.859 71.163 C 71.63 71.515 71.25 71.74 70.831 71.772 C 62.071 72.424 54.988 71.496 49.573 69.054 C 48.896 68.748 48.593 67.95 48.899 67.273 C 49.205 66.596 50.003 66.293 50.68 66.599 C 55.39 68.723 61.453 69.572 68.86 69.196 L 67.918 66.561 C 67.771 66.148 67.834 65.69 68.086 65.332 C 68.339 64.973 68.749 64.761 69.187 64.761 C 75.552 64.761 80.171 64.349 83.041 63.484 C 83.852 63.24 84.506 62.966 84.996 62.642 C 81.149 59.882 77.139 57.863 72.962 56.592 C 72.523 56.458 72.183 56.11 72.058 55.669 C 71.934 55.227 72.042 54.753 72.347 54.41 C 76.427 49.808 78.066 45.023 77.18 40.03 Z " fill="white" fill-rule="evenodd"/><line x1="50.049" x2="50.049" y1="45.271" y2="88.794"/><path d=" M 48.703 45.271 L 48.703 88.794 C 48.703 89.538 49.306 90.141 50.049 90.141 C 50.793 90.141 51.396 89.538 51.396 88.794 L 51.396 45.271 C 51.396 44.528 50.793 43.925 50.049 43.925 C 49.306 43.925 48.703 44.528 48.703 45.271 Z " fill="white" fill-rule="evenodd"/><line x1="50.127" x2="38.808" y1="62.108" y2="59.895"/><path d=" M 50.385 60.787 L 39.067 58.574 C 38.337 58.431 37.629 58.908 37.487 59.637 C 37.344 60.366 37.821 61.074 38.55 61.217 L 49.868 63.429 C 50.598 63.572 51.305 63.095 51.448 62.367 C 51.591 61.637 51.114 60.929 50.385 60.787 Z " fill="white" fill-rule="evenodd"/><line x1="50.127" x2="61.058" y1="62.108" y2="60.204"/><path d=" M 50.357 63.435 L 61.289 61.531 C 62.021 61.403 62.512 60.705 62.385 59.973 C 62.257 59.241 61.559 58.75 60.827 58.877 L 49.896 60.781 C 49.163 60.909 48.672 61.607 48.8 62.339 C 48.927 63.071 49.626 63.562 50.357 63.435 Z " fill="white" fill-rule="evenodd"/><line x1="50.127" x2="42.501" y1="56.39" y2="52.577"/><path d=" M 50.729 55.185 L 43.104 51.372 C 42.438 51.04 41.63 51.31 41.297 51.975 C 40.964 52.64 41.235 53.449 41.899 53.782 L 49.524 57.594 C 50.189 57.926 50.998 57.656 51.331 56.992 C 51.663 56.327 51.393 55.518 50.729 55.185 Z " fill="white" fill-rule="evenodd"/><line x1="50.127" x2="57.751" y1="56.39" y2="52.577"/><path d=" M 50.729 57.594 L 58.353 53.782 C 59.018 53.449 59.288 52.64 58.956 51.975 C 58.623 51.31 57.814 51.04 57.148 51.372 L 49.524 55.185 C 48.86 55.518 48.59 56.327 48.922 56.992 C 49.255 57.656 50.064 57.926 50.729 57.594 Z " fill="white" fill-rule="evenodd"/></g></svg>
